<?xml version="1.0" standalone="no"?><!DOCTYPE svg PUBLIC "-//W3C//DTD SVG 1.1//EN" "http://www.w3.org/Graphics/SVG/1.1/DTD/svg11.dtd"><svg t="1727865734347" class="icon" viewBox="0 0 1024 1024" version="1.1" xmlns="http://www.w3.org/2000/svg" p-id="1160" xmlns:xlink="http://www.w3.org/1999/xlink" width="200" height="200"><path d="M512 256c-141.162667 0-256 114.837333-256 256 0 141.141333 114.837333 256 256 256 141.141333 0 256-114.858667 256-256 0-141.162667-114.858667-256-256-256zM512 192a32 32 0 0 1-32-32V64a32 32 0 1 1 64 0v96A32 32 0 0 1 512 192zM263.104 295.104c-8.490667 0-16.64-3.370667-22.613333-9.386667L172.586667 217.856a32 32 0 1 1 45.248-45.248l67.861333 67.861333a31.957333 31.957333 0 0 1-22.613333 54.634667zM160 544H64a32 32 0 1 1 0-64h96a32 32 0 1 1 0 64zM195.242667 860.757333a31.957333 31.957333 0 0 1-22.634667-54.613333l67.882667-67.904a32 32 0 0 1 45.226666 45.248l-67.861333 67.904c-5.973333 6.016-14.144 9.386667-22.613333 9.386667zM512 992a32 32 0 0 1-32-32v-96a32 32 0 1 1 64 0V960a32 32 0 0 1-32 32zM828.778667 860.778667c-8.490667 0-16.64-3.370667-22.634667-9.386667l-67.904-67.904a32 32 0 1 1 45.248-45.248l67.904 67.904a31.957333 31.957333 0 0 1-22.613333 54.613333zM960 544h-96.042667a32 32 0 1 1 0-64H960a32 32 0 1 1 0 64zM760.853333 295.104a31.978667 31.978667 0 0 1-22.613333-54.613333l67.904-67.925334a32 32 0 1 1 45.248 45.248l-67.904 67.904a31.786667 31.786667 0 0 1-22.613333 9.386667z" fill="#FAD105" p-id="1161"></path></svg>